<svg width="108" height="108" viewBox="0 0 108 108" fill="none" xmlns="http://www.w3.org/2000/svg">
  <g filter="url(#filter0_d_0_1)">
    <rect x="4" width="100" height="100" rx="14" fill="white" />
    <rect x="6" y="2" width="96" height="96" rx="12" stroke="black" stroke-width="4" />
  </g>
  <path
    d="M45.856 20.192L49.332 21.204C43.788 37.352 33.8 46.416 17.784 51.608C17.432 50.772 16.376 49.188 15.672 48.396C31.38 43.908 40.928 35.284 45.856 20.192ZM25.88 20.412C30.632 34.492 40.532 44.612 56.416 48.308C55.624 49.1 54.568 50.596 54.04 51.564C37.716 47.296 28.036 36.824 22.624 21.424L25.88 20.412ZM16.2 18.52H55.976V21.776H16.2V18.52ZM34.24 11.04H37.628V20.5H34.24V11.04Z"
    fill="black" />
  <path
    d="M45.856 20.192L46.0517 19.5199L45.401 19.3305L45.1906 19.9747L45.856 20.192ZM49.332 21.204L49.9941 21.4313L50.2324 20.7371L49.5277 20.5319L49.332 21.204ZM17.784 51.608L17.1389 51.8796L17.3883 52.4721L17.9999 52.2739L17.784 51.608ZM15.672 48.396L15.4797 47.7229L14.4091 48.0288L15.1488 48.8611L15.672 48.396ZM25.88 20.412L26.5432 20.1882L26.3247 19.5407L25.6722 19.7435L25.88 20.412ZM56.416 48.308L56.911 48.803L57.8021 47.9118L56.5746 47.6262L56.416 48.308ZM54.04 51.564L53.8629 52.2412L54.3924 52.3797L54.6545 51.8992L54.04 51.564ZM22.624 21.424L22.4162 20.7555L21.7229 20.9711L21.9636 21.6561L22.624 21.424ZM16.2 18.52V17.82H15.5V18.52H16.2ZM55.976 18.52H56.676V17.82H55.976V18.52ZM55.976 21.776V22.476H56.676V21.776H55.976ZM16.2 21.776H15.5V22.476H16.2V21.776ZM34.24 11.04V10.34H33.54V11.04H34.24ZM37.628 11.04H38.328V10.34H37.628V11.04ZM37.628 20.5V21.2H38.328V20.5H37.628ZM34.24 20.5H33.54V21.2H34.24V20.5ZM45.6603 20.8641L49.1363 21.8761L49.5277 20.5319L46.0517 19.5199L45.6603 20.8641ZM48.6699 20.9767C45.928 28.9632 42.0998 35.1639 37.0028 40.0071C31.904 44.852 25.5023 48.37 17.5681 50.9421L17.9999 52.2739C26.0817 49.654 32.682 46.044 37.9672 41.0219C43.2542 35.9981 47.192 29.5928 49.9941 21.4313L48.6699 20.9767ZM18.4291 51.3364C18.2274 50.8573 17.8466 50.209 17.4441 49.5997C17.0379 48.9848 16.5775 48.361 16.1952 47.9309L15.1488 48.8611C15.4705 49.223 15.8901 49.7872 16.2759 50.3713C16.6654 50.961 16.9886 51.5227 17.1389 51.8796L18.4291 51.3364ZM15.8643 49.0691C23.7966 46.8027 30.2166 43.4794 35.2824 38.7839C40.3505 34.0862 44.027 28.0485 46.5214 20.4093L45.1906 19.9747C42.757 27.4275 39.1955 33.2478 34.3306 37.7571C29.4634 42.2686 23.2554 45.5013 15.4797 47.7229L15.8643 49.0691ZM25.2168 20.6358C30.0402 34.9275 40.1192 45.2346 56.2574 48.9898L56.5746 47.6262C40.9448 43.9894 31.2238 34.0565 26.5432 20.1882L25.2168 20.6358ZM55.921 47.813C55.0712 48.6629 53.9774 50.2169 53.4255 51.2288L54.6545 51.8992C55.1586 50.9751 56.1769 49.5371 56.911 48.803L55.921 47.813ZM54.2171 50.8868C38.1529 46.6867 28.632 36.4087 23.2844 21.1919L21.9636 21.6561C27.44 37.2393 37.2791 47.9053 53.8629 52.2412L54.2171 50.8868ZM22.8318 22.0925L26.0878 21.0805L25.6722 19.7435L22.4162 20.7555L22.8318 22.0925ZM16.2 19.22H55.976V17.82H16.2V19.22ZM55.276 18.52V21.776H56.676V18.52H55.276ZM55.976 21.076H16.2V22.476H55.976V21.076ZM16.9 21.776V18.52H15.5V21.776H16.9ZM34.24 11.74H37.628V10.34H34.24V11.74ZM36.928 11.04V20.5H38.328V11.04H36.928ZM37.628 19.8H34.24V21.2H37.628V19.8ZM34.94 20.5V11.04H33.54V20.5H34.94Z"
    fill="black" />
  <path
    d="M63.8866 79.9897L60.3505 88H54L69.5876 52.7113H75.9381L91.4536 88H85.1031L81.567 79.9897H63.8866ZM79.1856 74.433L72.7629 59.9278L66.3402 74.433H79.1856Z"
    fill="black" />
  <path d="M70 20.1321C87.8594 19.1291 90.5829 23.7285 87.5 37.6321" stroke="black" stroke-width="2" />
  <path d="M40.5928 82.5C22.7334 83.503 20.0099 78.9037 23.0928 65" stroke="black" stroke-width="2"
    stroke-miterlimit="2.61313" />
  <defs>
    <filter id="filter0_d_0_1" x="0" y="0" width="108" height="108" filterUnits="userSpaceOnUse"
      color-interpolation-filters="sRGB">
      <feFlood flood-opacity="0" result="BackgroundImageFix" />
      <feColorMatrix in="SourceAlpha" type="matrix"
        values="0 0 0 0 0 0 0 0 0 0 0 0 0 0 0 0 0 0 127 0" result="hardAlpha" />
      <feOffset dy="4" />
      <feGaussianBlur stdDeviation="2" />
      <feComposite in2="hardAlpha" operator="out" />
      <feColorMatrix type="matrix" values="0 0 0 0 0 0 0 0 0 0 0 0 0 0 0 0 0 0 0.25 0" />
      <feBlend mode="normal" in2="BackgroundImageFix" result="effect1_dropShadow_0_1" />
      <feBlend mode="normal" in="SourceGraphic" in2="effect1_dropShadow_0_1" result="shape" />
    </filter>
  </defs>
</svg>
  